<mxfile host="app.diagrams.net" modified="2023-10-11T15:04:22.868Z" agent="Mozilla/5.0 (Windows NT 10.0; Win64; x64; rv:109.0) Gecko/20100101 Firefox/118.0" etag="boOv_yrv08jZsJvkjsJz" version="22.0.4" type="github">
  <diagram id="C5RBs43oDa-KdzZeNtuy" name="Page-1">
    <mxGraphModel dx="1164" dy="538" grid="1" gridSize="10" guides="1" tooltips="1" connect="1" arrows="1" fold="1" page="1" pageScale="1" pageWidth="827" pageHeight="1169" math="0" shadow="0">
      <root>
        <mxCell id="WIyWlLk6GJQsqaUBKTNV-0" />
        <mxCell id="WIyWlLk6GJQsqaUBKTNV-1" parent="WIyWlLk6GJQsqaUBKTNV-0" />
        <mxCell id="EvDtXX9hzA3epqV38AdL-3" value="" style="edgeStyle=orthogonalEdgeStyle;rounded=0;orthogonalLoop=1;jettySize=auto;html=1;" parent="WIyWlLk6GJQsqaUBKTNV-1" source="EvDtXX9hzA3epqV38AdL-0" edge="1">
          <mxGeometry relative="1" as="geometry">
            <mxPoint x="145" y="110" as="targetPoint" />
          </mxGeometry>
        </mxCell>
        <mxCell id="EvDtXX9hzA3epqV38AdL-0" value="" style="ellipse;whiteSpace=wrap;html=1;aspect=fixed;" parent="WIyWlLk6GJQsqaUBKTNV-1" vertex="1">
          <mxGeometry x="120" y="20" width="50" height="50" as="geometry" />
        </mxCell>
        <mxCell id="EvDtXX9hzA3epqV38AdL-1" value="" style="strokeWidth=2;html=1;shape=mxgraph.flowchart.terminator;whiteSpace=wrap;" parent="WIyWlLk6GJQsqaUBKTNV-1" vertex="1">
          <mxGeometry x="95" y="820" width="100" height="60" as="geometry" />
        </mxCell>
        <mxCell id="DNlSBWpWt3v1468XW_Ce-4" value="" style="edgeStyle=orthogonalEdgeStyle;rounded=0;orthogonalLoop=1;jettySize=auto;html=1;" edge="1" parent="WIyWlLk6GJQsqaUBKTNV-1" source="DNlSBWpWt3v1468XW_Ce-0" target="DNlSBWpWt3v1468XW_Ce-2">
          <mxGeometry relative="1" as="geometry" />
        </mxCell>
        <mxCell id="DNlSBWpWt3v1468XW_Ce-0" value="&lt;div&gt;inteiro entrada = -999&lt;br&gt;&lt;/div&gt;&lt;div&gt;inteiro foraIntervalo = 0&lt;/div&gt;&lt;div&gt;inteiro contador = 10&lt;br&gt;&lt;/div&gt;" style="rounded=1;whiteSpace=wrap;html=1;absoluteArcSize=1;arcSize=14;strokeWidth=2;" vertex="1" parent="WIyWlLk6GJQsqaUBKTNV-1">
          <mxGeometry x="50" y="120" width="190" height="70" as="geometry" />
        </mxCell>
        <mxCell id="DNlSBWpWt3v1468XW_Ce-9" value="" style="edgeStyle=orthogonalEdgeStyle;rounded=0;orthogonalLoop=1;jettySize=auto;html=1;" edge="1" parent="WIyWlLk6GJQsqaUBKTNV-1" source="DNlSBWpWt3v1468XW_Ce-1" target="DNlSBWpWt3v1468XW_Ce-8">
          <mxGeometry relative="1" as="geometry" />
        </mxCell>
        <mxCell id="DNlSBWpWt3v1468XW_Ce-1" value="entrada" style="html=1;strokeWidth=2;shape=manualInput;whiteSpace=wrap;rounded=1;size=26;arcSize=11;" vertex="1" parent="WIyWlLk6GJQsqaUBKTNV-1">
          <mxGeometry x="80" y="370" width="130" height="80" as="geometry" />
        </mxCell>
        <mxCell id="DNlSBWpWt3v1468XW_Ce-5" value="" style="edgeStyle=orthogonalEdgeStyle;rounded=0;orthogonalLoop=1;jettySize=auto;html=1;" edge="1" parent="WIyWlLk6GJQsqaUBKTNV-1" source="DNlSBWpWt3v1468XW_Ce-2" target="DNlSBWpWt3v1468XW_Ce-1">
          <mxGeometry relative="1" as="geometry" />
        </mxCell>
        <mxCell id="DNlSBWpWt3v1468XW_Ce-2" value="" style="verticalLabelPosition=bottom;verticalAlign=top;html=1;shape=hexagon;perimeter=hexagonPerimeter2;arcSize=6;size=0.27;" vertex="1" parent="WIyWlLk6GJQsqaUBKTNV-1">
          <mxGeometry x="75" y="250" width="140" height="70" as="geometry" />
        </mxCell>
        <mxCell id="DNlSBWpWt3v1468XW_Ce-3" value="&lt;div&gt;enquanto&amp;nbsp;&lt;/div&gt;&lt;div&gt;contador &amp;gt; 0&lt;/div&gt;" style="text;whiteSpace=wrap;html=1;" vertex="1" parent="WIyWlLk6GJQsqaUBKTNV-1">
          <mxGeometry x="110" y="260" width="110" height="50" as="geometry" />
        </mxCell>
        <mxCell id="DNlSBWpWt3v1468XW_Ce-11" value="" style="edgeStyle=orthogonalEdgeStyle;rounded=0;orthogonalLoop=1;jettySize=auto;html=1;" edge="1" parent="WIyWlLk6GJQsqaUBKTNV-1" source="DNlSBWpWt3v1468XW_Ce-8" target="DNlSBWpWt3v1468XW_Ce-10">
          <mxGeometry relative="1" as="geometry" />
        </mxCell>
        <mxCell id="DNlSBWpWt3v1468XW_Ce-13" value="" style="edgeStyle=orthogonalEdgeStyle;rounded=0;orthogonalLoop=1;jettySize=auto;html=1;" edge="1" parent="WIyWlLk6GJQsqaUBKTNV-1" source="DNlSBWpWt3v1468XW_Ce-8" target="DNlSBWpWt3v1468XW_Ce-12">
          <mxGeometry relative="1" as="geometry" />
        </mxCell>
        <mxCell id="DNlSBWpWt3v1468XW_Ce-8" value="&lt;div&gt;se 10 &amp;lt; =&amp;nbsp;&lt;/div&gt;&lt;div&gt;entrada &amp;lt;=20&lt;/div&gt;" style="rhombus;whiteSpace=wrap;html=1;strokeWidth=2;rounded=1;arcSize=11;" vertex="1" parent="WIyWlLk6GJQsqaUBKTNV-1">
          <mxGeometry x="310" y="340" width="155" height="140" as="geometry" />
        </mxCell>
        <mxCell id="DNlSBWpWt3v1468XW_Ce-19" value="" style="edgeStyle=orthogonalEdgeStyle;rounded=0;orthogonalLoop=1;jettySize=auto;html=1;entryX=1;entryY=0.5;entryDx=0;entryDy=0;" edge="1" parent="WIyWlLk6GJQsqaUBKTNV-1" source="DNlSBWpWt3v1468XW_Ce-10" target="DNlSBWpWt3v1468XW_Ce-16">
          <mxGeometry relative="1" as="geometry">
            <mxPoint x="622.5" y="510" as="targetPoint" />
            <Array as="points">
              <mxPoint x="623" y="630" />
            </Array>
          </mxGeometry>
        </mxCell>
        <mxCell id="DNlSBWpWt3v1468XW_Ce-10" value="&lt;div&gt;foraIntervalo ++&lt;/div&gt;&lt;div&gt;contador --&lt;br&gt;&lt;/div&gt;" style="whiteSpace=wrap;html=1;strokeWidth=2;rounded=1;arcSize=11;" vertex="1" parent="WIyWlLk6GJQsqaUBKTNV-1">
          <mxGeometry x="562.5" y="380" width="120" height="60" as="geometry" />
        </mxCell>
        <mxCell id="DNlSBWpWt3v1468XW_Ce-17" value="" style="edgeStyle=orthogonalEdgeStyle;rounded=0;orthogonalLoop=1;jettySize=auto;html=1;" edge="1" parent="WIyWlLk6GJQsqaUBKTNV-1" source="DNlSBWpWt3v1468XW_Ce-12" target="DNlSBWpWt3v1468XW_Ce-16">
          <mxGeometry relative="1" as="geometry" />
        </mxCell>
        <mxCell id="DNlSBWpWt3v1468XW_Ce-12" value="contador --" style="whiteSpace=wrap;html=1;strokeWidth=2;rounded=1;arcSize=11;" vertex="1" parent="WIyWlLk6GJQsqaUBKTNV-1">
          <mxGeometry x="327.5" y="510" width="120" height="60" as="geometry" />
        </mxCell>
        <mxCell id="DNlSBWpWt3v1468XW_Ce-22" value="" style="edgeStyle=orthogonalEdgeStyle;rounded=0;orthogonalLoop=1;jettySize=auto;html=1;" edge="1" parent="WIyWlLk6GJQsqaUBKTNV-1" source="DNlSBWpWt3v1468XW_Ce-16" target="DNlSBWpWt3v1468XW_Ce-21">
          <mxGeometry relative="1" as="geometry" />
        </mxCell>
        <mxCell id="DNlSBWpWt3v1468XW_Ce-16" value="fim se" style="ellipse;whiteSpace=wrap;html=1;strokeWidth=2;rounded=1;arcSize=11;" vertex="1" parent="WIyWlLk6GJQsqaUBKTNV-1">
          <mxGeometry x="111.88" y="600" width="66.25" height="60" as="geometry" />
        </mxCell>
        <mxCell id="DNlSBWpWt3v1468XW_Ce-23" value="" style="edgeStyle=orthogonalEdgeStyle;rounded=0;orthogonalLoop=1;jettySize=auto;html=1;" edge="1" parent="WIyWlLk6GJQsqaUBKTNV-1" source="DNlSBWpWt3v1468XW_Ce-21" target="EvDtXX9hzA3epqV38AdL-1">
          <mxGeometry relative="1" as="geometry" />
        </mxCell>
        <mxCell id="DNlSBWpWt3v1468XW_Ce-21" value="fim enquanto" style="ellipse;whiteSpace=wrap;html=1;strokeWidth=2;rounded=1;arcSize=11;" vertex="1" parent="WIyWlLk6GJQsqaUBKTNV-1">
          <mxGeometry x="111.88" y="730" width="66.25" height="60" as="geometry" />
        </mxCell>
      </root>
    </mxGraphModel>
  </diagram>
</mxfile>
